<?xml version="1.0" standalone="no"?>
<!DOCTYPE svg PUBLIC "-//W3C//DTD SVG 20010904//EN"
 "http://www.w3.org/TR/2001/REC-SVG-20010904/DTD/svg10.dtd">
<svg version="1.0" xmlns="http://www.w3.org/2000/svg"
 width="512.000000pt" height="512.000000pt" viewBox="0 0 512.000000 512.000000"
 preserveAspectRatio="xMidYMid meet">

<g transform="translate(0.000000,512.000000) scale(0.100000,-0.100000)"
fill="#000000" stroke="none">
<path d="M205 5104 c-112 -41 -170 -187 -116 -293 11 -21 397 -569 857 -1217
461 -648 851 -1203 867 -1231 15 -29 34 -67 40 -85 8 -24 13 -318 17 -1073 6
-1150 1 -1075 70 -1142 46 -45 108 -67 168 -60 68 9 1027 378 1070 412 19 15
43 46 53 69 18 39 19 81 19 861 0 905 0 905 62 1016 18 33 409 589 869 1237
460 647 844 1192 853 1211 10 18 20 56 23 85 7 72 -34 149 -102 191 l-48 30
-2331 2 c-2020 1 -2336 0 -2371 -13z"/>
</g>
</svg>
