<?xml version="1.0" standalone="no"?>
<!DOCTYPE svg PUBLIC "-//W3C//DTD SVG 20010904//EN"
 "http://www.w3.org/TR/2001/REC-SVG-20010904/DTD/svg10.dtd">
<svg version="1.0" xmlns="http://www.w3.org/2000/svg"
 width="512.000000pt" height="512.000000pt" viewBox="0 0 512.000000 512.000000"
 preserveAspectRatio="xMidYMid meet">

<g transform="translate(0.000000,512.000000) scale(0.100000,-0.100000)"
fill="#000000" stroke="none">
<path d="M1610 4275 c-36 -8 -106 -35 -156 -59 -200 -99 -350 -295 -386 -503
l-12 -73 -226 0 c-214 0 -228 -1 -270 -22 -24 -13 -58 -40 -74 -61 l-31 -39
-3 -1086 c-2 -720 1 -1099 7 -1122 6 -20 25 -50 43 -69 62 -63 72 -66 304 -69
l211 -4 13 -41 c33 -112 116 -210 219 -259 90 -43 207 -50 301 -18 131 44 223
137 265 267 l17 52 557 3 556 3 47 28 c26 15 52 37 58 48 11 19 12 19 52 -10
56 -41 122 -61 225 -69 l86 -7 12 -40 c34 -115 105 -199 213 -252 73 -37 80
-38 182 -38 99 0 110 2 171 32 107 53 193 152 220 255 l12 45 91 6 c105 6 163
25 220 69 57 44 85 80 112 146 22 54 24 69 24 292 0 258 -8 315 -58 402 -38
67 -606 761 -652 798 -59 46 -158 88 -235 100 -38 5 -197 10 -352 10 l-283 0
0 249 c0 152 -4 261 -11 278 -15 40 -57 82 -104 104 -35 16 -67 19 -265 19
l-226 0 -10 68 c-39 244 -232 464 -479 548 -100 33 -280 43 -385 19z m100
-167 c0 -60 19 -88 60 -88 38 0 62 32 68 90 3 32 9 50 18 50 36 0 177 -54 230
-88 126 -82 237 -243 262 -379 l9 -53 -49 0 c-39 0 -54 -5 -73 -25 -14 -13
-25 -31 -25 -40 0 -9 11 -27 25 -40 19 -20 34 -25 73 -25 l49 0 -9 -52 c-14
-84 -77 -205 -144 -277 -75 -82 -157 -135 -256 -166 -104 -33 -108 -32 -108 9
0 40 -16 87 -33 98 -20 13 -60 9 -79 -9 -13 -12 -18 -30 -18 -70 l0 -55 -42 7
c-162 28 -315 134 -403 280 -37 62 -75 169 -75 211 0 22 4 24 47 24 80 0 118
57 71 107 -17 18 -32 23 -70 23 -44 0 -48 2 -48 24 0 42 38 149 75 211 44 72
122 154 190 198 52 33 194 86 233 87 20 0 22 -5 22 -52z m-642 -670 c36 -209
186 -405 386 -504 228 -112 486 -98 703 38 93 59 205 183 253 281 41 84 70
179 70 229 l0 28 223 0 c215 0 225 -1 243 -21 18 -20 19 -54 21 -1063 2 -676
-1 -1052 -8 -1072 -5 -17 -21 -36 -35 -43 -18 -8 -178 -11 -558 -11 l-533 0
-13 43 c-72 240 -312 363 -543 277 -114 -43 -220 -159 -247 -270 l-12 -50
-193 0 c-179 0 -194 1 -219 21 l-26 20 0 1066 c0 978 1 1068 17 1085 15 16 36
18 238 18 l221 0 12 -72z m2725 -606 c36 -15 76 -42 110 -75 l52 -52 -235 -5
c-234 -5 -235 -5 -282 -32 -35 -21 -53 -41 -73 -82 l-26 -53 3 -301 3 -300 30
-43 c17 -23 50 -53 74 -66 l44 -23 524 0 523 0 0 -171 c0 -193 -6 -215 -70
-273 -46 -42 -93 -56 -181 -56 l-67 0 -7 38 c-11 59 -63 148 -117 198 -125
117 -308 144 -462 68 -98 -48 -194 -168 -216 -269 l-6 -30 -85 0 c-74 0 -90 4
-131 28 -31 18 -57 44 -75 75 l-28 47 -3 689 c-2 379 -1 695 2 703 5 12 56 14
323 11 305 -3 320 -4 376 -26z m480 -522 c194 -237 257 -327 257 -365 0 -13
-58 -15 -510 -15 -497 0 -511 1 -530 20 -19 19 -20 33 -20 297 0 271 0 277 22
300 l22 23 275 -2 275 -3 209 -255z m-2726 -819 c169 -86 209 -301 84 -443
-76 -87 -218 -115 -326 -64 -93 43 -165 153 -165 251 0 49 27 128 59 172 31
42 80 77 140 100 51 19 156 11 208 -16z m2363 13 c72 -21 150 -98 175 -173 46
-140 -18 -286 -154 -349 -73 -34 -186 -29 -254 11 -161 94 -186 320 -50 450
74 71 176 93 283 61z"/>
<path d="M1827 3858 c-27 -25 -117 -246 -117 -289 0 -19 36 -60 148 -172 156
-154 174 -165 212 -127 41 41 29 66 -102 197 l-122 122 44 115 c41 111 42 116
26 141 -9 14 -20 25 -25 25 -5 0 -16 3 -24 6 -8 3 -26 -5 -40 -18z"/>
</g>
</svg>
